<?xml version="1.0" encoding="utf-8"?><!-- Uploaded to: SVG Repo, www.svgrepo.com, Generator: SVG Repo Mixer Tools -->
<svg fill="#000000" width="800px" height="800px" viewBox="0 0 24 24" id="right-double-arrow" data-name="Flat Color" xmlns="http://www.w3.org/2000/svg" class="icon flat-color"><path id="secondary" d="M20.71,16.29l-3-3a1,1,0,0,0-1.42,1.42L17.59,16H4a1,1,0,0,0,0,2H17.59l-1.3,1.29a1,1,0,0,0,0,1.42,1,1,0,0,0,1.42,0l3-3A1,1,0,0,0,20.71,16.29Z" style="fill: rgb(44, 169, 188);"></path><path id="primary" d="M20.71,6.29l-3-3a1,1,0,0,0-1.42,1.42L17.59,6H4A1,1,0,0,0,4,8H17.59l-1.3,1.29a1,1,0,0,0,0,1.42,1,1,0,0,0,1.42,0l3-3A1,1,0,0,0,20.71,6.29Z" style="fill: rgb(0, 0, 0);"></path></svg>